<?xml version="1.0" standalone="no"?>
<!DOCTYPE svg PUBLIC "-//W3C//DTD SVG 20010904//EN"
 "http://www.w3.org/TR/2001/REC-SVG-20010904/DTD/svg10.dtd">
<svg version="1.0" xmlns="http://www.w3.org/2000/svg"
 width="2000.000000pt" height="1200.000000pt" viewBox="0 0 2000.000000 1200.000000"
 preserveAspectRatio="xMidYMid meet">
<metadata>
Created by potrace 1.16, written by Peter Selinger 2001-2019
</metadata>
<g transform="translate(0.000000,1200.000000) scale(0.100000,-0.100000)"
fill="#000000" stroke="none">
<path d="M6892 6163 l3 -1588 60 3 c185 10 349 103 440 251 l36 58 87 -87
c156 -155 322 -229 563 -250 375 -32 715 153 879 480 77 153 111 304 111 495
0 312 -86 548 -270 738 -114 119 -245 194 -416 238 -112 28 -326 31 -443 5
-137 -30 -276 -97 -369 -178 l-48 -41 -5 414 c-6 470 -10 495 -86 658 -38 81
-56 106 -132 180 -65 65 -107 98 -167 128 -75 38 -199 83 -231 83 -12 0 -14
-233 -12 -1587z m1215 -167 c67 -21 159 -91 201 -154 105 -156 119 -384 35
-553 -93 -187 -293 -277 -497 -224 -78 20 -133 54 -195 120 -142 150 -170 413
-66 615 28 53 115 140 170 168 27 14 73 31 100 39 61 15 181 10 252 -11z"/>
<path d="M2613 7511 c-195 -77 -315 -192 -425 -407 -72 -141 -107 -243 -283
-829 -90 -302 -168 -558 -173 -568 -5 -12 -70 282 -185 833 -98 469 -184 865
-192 880 -8 15 -25 30 -37 34 -13 3 -141 6 -286 6 l-263 0 -24 -25 c-14 -13
-25 -29 -25 -34 0 -6 146 -624 325 -1373 287 -1201 329 -1366 351 -1388 l24
-25 238 -3 c250 -3 280 1 306 40 8 13 135 416 282 895 147 480 269 872 271
870 1 -2 111 -363 243 -803 133 -439 253 -836 266 -882 38 -124 33 -122 317
-122 252 0 285 6 305 56 11 28 682 2846 682 2865 0 16 -104 10 -186 -11 -217
-55 -378 -194 -498 -430 -30 -58 -68 -149 -85 -202 -17 -53 -82 -343 -146
-644 -63 -301 -116 -549 -118 -551 -2 -2 -29 79 -60 179 -32 101 -160 516
-286 923 -191 619 -232 740 -247 742 -11 2 -51 -10 -91 -26z"/>
<path d="M10185 7484 c-414 -73 -698 -318 -769 -666 -32 -156 -15 -389 37
-513 99 -236 303 -370 717 -470 449 -108 543 -141 625 -221 134 -131 118 -366
-31 -461 -76 -49 -152 -67 -279 -67 -281 1 -460 124 -511 353 -26 117 -7 111
-337 111 l-284 0 -23 -25 c-21 -23 -22 -30 -16 -104 17 -210 97 -391 235 -535
141 -147 325 -238 591 -292 104 -21 395 -24 515 -5 284 45 488 142 643 306 87
91 154 212 186 332 37 137 37 353 1 497 -46 186 -178 349 -354 440 -130 67
-291 119 -531 171 -230 49 -352 85 -424 123 -59 32 -122 102 -136 151 -13 46
-13 146 0 192 16 56 80 122 152 155 59 27 71 29 193 29 100 0 142 -4 181 -18
124 -43 195 -121 235 -257 35 -122 15 -115 325 -115 l266 0 20 25 c17 21 20
34 15 88 -17 176 -95 354 -208 476 -201 215 -472 318 -834 315 -66 0 -156 -7
-200 -15z"/>
<path d="M12553 7221 c-219 -76 -376 -226 -450 -429 -31 -85 -53 -197 -53
-273 l0 -59 -155 0 c-210 0 -195 19 -195 -243 0 -260 -15 -241 196 -245 l154
-3 0 -654 c0 -628 1 -654 19 -676 l19 -24 271 0 c268 0 271 0 293 23 l23 23 3
654 2 654 156 3 c207 4 194 -13 194 245 0 193 0 194 -25 218 -23 24 -28 25
-175 25 l-150 0 0 395 0 395 -22 0 c-13 0 -60 -13 -105 -29z"/>
<path d="M5390 6520 c-186 -24 -392 -100 -524 -194 -88 -63 -214 -200 -263
-287 -88 -154 -126 -305 -126 -504 -1 -152 8 -211 54 -350 45 -138 106 -234
218 -345 107 -105 198 -163 340 -216 298 -112 698 -101 969 26 195 92 328 224
422 422 53 110 58 140 31 167 -20 20 -30 21 -287 21 -161 0 -273 -4 -284 -10
-11 -6 -31 -32 -46 -58 -41 -72 -100 -127 -168 -158 -51 -24 -77 -29 -166 -32
-89 -3 -114 -1 -161 17 -143 54 -229 174 -255 354 l-6 47 696 0 c683 0 696 0
716 20 18 18 20 33 20 129 0 485 -283 830 -765 932 -106 23 -309 32 -415 19z
m241 -434 c141 -33 247 -145 265 -280 l7 -46 -377 0 c-252 0 -376 3 -376 10 0
19 41 132 57 159 85 137 250 198 424 157z"/>
<path d="M14130 6523 c-258 -26 -478 -117 -632 -262 -215 -201 -309 -449 -295
-775 12 -284 105 -500 291 -673 188 -175 440 -264 754 -264 70 0 162 5 206 11
249 35 484 155 621 316 153 181 226 391 226 655 0 253 -70 467 -212 645 -193
243 -586 385 -959 347z m201 -493 c208 -39 331 -204 345 -465 13 -230 -71
-404 -233 -486 -66 -33 -71 -34 -188 -34 -113 0 -124 2 -185 31 -186 88 -282
320 -236 572 48 270 253 427 497 382z"/>
<path d="M18032 6519 c-454 -53 -782 -318 -889 -717 -23 -86 -27 -116 -27
-267 0 -143 3 -184 21 -255 100 -392 380 -639 811 -716 116 -20 360 -20 472 1
256 48 444 152 582 324 74 93 147 228 155 291 4 30 1 45 -12 60 -17 19 -32 20
-290 20 -310 0 -275 10 -348 -102 -40 -63 -80 -97 -153 -130 -43 -20 -65 -23
-174 -23 -117 0 -128 2 -180 28 -71 36 -131 95 -164 162 -31 61 -56 146 -56
193 l0 32 693 0 c694 0 694 0 713 21 17 19 19 37 18 148 -1 264 -86 482 -254
649 -216 216 -563 322 -918 281z m290 -449 c107 -40 195 -151 213 -267 l7 -43
-377 0 -378 0 6 36 c16 96 101 219 179 260 90 48 244 54 350 14z"/>
<path d="M15630 5581 c0 -890 1 -920 19 -942 l19 -24 271 0 c268 0 271 0 293
23 l23 23 5 487 c6 543 6 540 78 642 86 124 247 168 456 124 135 -28 140 -16
134 307 -2 112 -8 212 -12 222 -15 33 -67 50 -167 55 -116 6 -218 -14 -311
-61 -80 -39 -202 -160 -243 -239 -17 -32 -33 -58 -36 -58 -3 0 -16 19 -29 43
-42 74 -157 177 -256 229 -76 39 -205 88 -235 88 -5 0 -9 -385 -9 -919z"/>
</g>
</svg>
